<svg width="16" height="16" viewBox="0 0 16 16" fill="none" xmlns="http://www.w3.org/2000/svg">
<path d="M8.00007 3.06334C7.27367 2.39541 6.32288 2.0247 5.33607 2.02467C4.81376 2.02522 4.29672 2.12905 3.81469 2.33019C3.33267 2.53132 2.89518 2.8258 2.5274 3.19667C0.958735 4.77201 0.959402 7.23601 2.52874 8.80467L7.41674 13.6927C7.53007 13.892 7.74874 14.0207 8.00007 14.0207C8.10327 14.0197 8.20479 13.9945 8.29649 13.9471C8.38819 13.8998 8.46751 13.8316 8.52807 13.748L13.4714 8.80467C15.0407 7.23534 15.0407 4.77201 13.4701 3.19401C13.1025 2.82382 12.6653 2.52994 12.1838 2.32926C11.7022 2.12859 11.1858 2.02507 10.6641 2.02467C9.67729 2.02483 8.72654 2.39552 8.00007 3.06334ZM12.5274 4.13667C13.5694 5.18401 13.5701 6.82001 12.5287 7.86201L8.00007 12.3907L3.4714 7.86201C2.43007 6.82001 2.43074 5.18401 3.47007 4.13934C3.97674 3.63534 4.6394 3.35801 5.33607 3.35801C6.03274 3.35801 6.69274 3.63534 7.1954 4.13801L7.52874 4.47134C7.59059 4.5333 7.66406 4.58246 7.74494 4.616C7.82582 4.64954 7.91251 4.66681 8.00007 4.66681C8.08762 4.66681 8.17432 4.64954 8.2552 4.616C8.33607 4.58246 8.40954 4.5333 8.4714 4.47134L8.80474 4.13801C9.81274 3.13201 11.5207 3.13467 12.5274 4.13667Z" fill="white"/>
</svg>
