<svg width="16" height="16" viewBox="0 0 16 16" fill="none" xmlns="http://www.w3.org/2000/svg">
<path d="M8.00001 3.06334C7.27361 2.39541 6.32281 2.0247 5.33601 2.02467C4.8137 2.02522 4.29666 2.12905 3.81463 2.33019C3.33261 2.53132 2.89512 2.8258 2.52734 3.19667C0.958674 4.77201 0.959341 7.23601 2.52867 8.80467L7.41667 13.6927C7.53001 13.892 7.74867 14.0207 8.00001 14.0207C8.10321 14.0197 8.20473 13.9945 8.29643 13.9471C8.38813 13.8998 8.46745 13.8316 8.52801 13.748L13.4713 8.80467C15.0407 7.23534 15.0407 4.77201 13.47 3.19401C13.1024 2.82382 12.6653 2.52994 12.1837 2.32926C11.7022 2.12859 11.1857 2.02507 10.664 2.02467C9.67723 2.02483 8.72648 2.39552 8.00001 3.06334ZM12.5273 4.13667C13.5693 5.18401 13.57 6.82001 12.5287 7.86201L8.00001 12.3907L3.47134 7.86201C2.43001 6.82001 2.43067 5.18401 3.47001 4.13934C3.97667 3.63534 4.63934 3.35801 5.33601 3.35801C6.03267 3.35801 6.69267 3.63534 7.19534 4.13801L7.52867 4.47134C7.59053 4.5333 7.664 4.58246 7.74488 4.616C7.82576 4.64954 7.91245 4.66681 8.00001 4.66681C8.08756 4.66681 8.17426 4.64954 8.25514 4.616C8.33601 4.58246 8.40948 4.5333 8.47134 4.47134L8.80467 4.13801C9.81267 3.13201 11.5207 3.13467 12.5273 4.13667Z" fill="#323749"/>
</svg>
