<svg width="54" height="58" viewBox="0 0 54 58" fill="none" xmlns="http://www.w3.org/2000/svg">
<path d="M53.1244 48.3776H41.3844V57.9964H53.1244V48.3776Z" fill="#532322"/>
<path d="M3.34202 53.5572V57.4968H1.55459V53.5572H0.909119V52.1722H1.55459V51.122C1.55459 50.5251 1.61669 49.8445 2.17523 49.2715C2.53518 48.9014 3.04411 48.6625 3.72685 48.6625C4.12402 48.6625 4.44671 48.7344 4.74471 48.8416V50.3459C4.54612 50.2266 4.28539 50.1429 4.06193 50.1429C3.7889 50.1429 3.61509 50.2622 3.54061 50.3577C3.34202 50.6084 3.34202 51.0265 3.34202 51.2769V52.1726H4.75709V53.5572H3.34202Z" fill="#532322"/>
<path d="M9.87847 56.8161C9.46123 57.2937 8.75203 57.6758 7.8445 57.6758C6.93712 57.6758 6.22777 57.2937 5.81053 56.8161C5.34125 56.2787 5.11169 55.5148 5.11169 54.8346C5.11169 54.154 5.34125 53.3901 5.81053 52.8526C6.22777 52.3751 6.93712 51.9933 7.8445 51.9933C8.75203 51.9933 9.46123 52.3751 9.87847 52.8526C10.3479 53.3901 10.5773 54.154 10.5773 54.8346C10.5773 55.5148 10.3479 56.279 9.87847 56.8161ZM6.9997 53.8317C6.78065 54.0824 6.65552 54.4047 6.65552 54.8346C6.65552 55.3239 6.82234 55.6341 6.9997 55.8371C7.18742 56.0522 7.45863 56.2192 7.85493 56.2192C8.18876 56.2192 8.47043 56.0878 8.68948 55.8371C8.90842 55.5864 9.03363 55.264 9.03363 54.8346C9.03363 54.4047 8.90842 54.0824 8.68948 53.8317C8.47043 53.5809 8.18876 53.4495 7.84457 53.4495C7.50035 53.4495 7.21872 53.5809 6.99974 53.8317H6.9997Z" fill="#532322"/>
<path d="M13.1224 54.5956L11.2762 52.1721H13.1954L14.0612 53.4018L14.9269 52.1721H16.8461L14.9999 54.5956L17.2737 57.4967H15.3336L14.0612 55.7773L12.7886 57.4967H10.8486L13.1224 54.5956Z" fill="#532322"/>
<path d="M17.8787 52.1718H19.3806V52.7929C19.7665 52.1245 20.3298 52.0408 20.6845 52.0408C20.8827 52.0408 21.2477 52.0646 21.5607 52.2794C21.8005 52.4347 21.9988 52.6975 22.1239 53.0198C22.2386 52.8047 22.4159 52.554 22.7185 52.3392C23.0418 52.1123 23.3443 52.0408 23.7093 52.0408C24.2727 52.0408 24.7315 52.2317 25.0132 52.5422C25.4617 53.0315 25.493 53.7477 25.493 54.1299V57.4964H23.991V54.7983C23.991 54.5238 23.991 54.0462 23.7928 53.7598C23.6676 53.5807 23.4695 53.4731 23.2504 53.4731C23.0001 53.4731 22.7914 53.6046 22.6663 53.7958C22.4681 54.0821 22.4368 54.4999 22.4368 54.8461V57.4964H20.9349V54.7268C20.9349 54.3685 20.9245 53.9507 20.695 53.6879C20.5385 53.5091 20.3508 53.4731 20.1943 53.4731C19.9961 53.4731 19.8189 53.533 19.6728 53.6879C19.3912 53.9985 19.3807 54.5953 19.3807 54.7745V57.4964H17.8788V52.1718H17.8787Z" fill="#532322"/>
<path d="M27.5272 48.901C28.0174 48.901 28.4034 49.3426 28.4034 49.9039C28.4034 50.4648 28.0174 50.9068 27.5272 50.9068C27.0369 50.9068 26.6511 50.4648 26.6511 49.9039C26.6511 49.3426 27.0369 48.901 27.5272 48.901ZM28.4034 52.2742V57.5988L26.7762 57.4964V52.1721L28.4034 52.2742Z" fill="#532322"/>
<path d="M29.5505 52.1725H31.0524V52.805C31.5114 52.1365 32.0538 52.0289 32.4918 52.0289C32.8986 52.0289 33.4306 52.1126 33.8268 52.5663C34.265 53.0678 34.2962 53.7003 34.2962 54.1305V57.4967H32.7943V54.763C32.7943 54.4168 32.784 53.9749 32.544 53.7007C32.4292 53.5692 32.2415 53.4617 31.9704 53.4617C31.6573 53.4617 31.4591 53.6048 31.3445 53.7484C31.094 54.0347 31.0524 54.4168 31.0524 54.763V57.4967H29.5505V52.1725Z" fill="#532322"/>
<path d="M40.5337 57.4967H39.0319V56.8521C38.8023 57.2339 38.3851 57.6759 37.5613 57.6759C36.8726 57.6759 36.372 57.4251 35.9653 56.9476C35.4855 56.3984 35.2352 55.6345 35.2352 54.8104C35.2352 53.9272 35.5167 53.1989 35.9653 52.7095C36.372 52.2679 36.9457 51.9933 37.5822 51.9933C38.0931 51.9933 38.6562 52.1842 39.0319 52.769V48.7938H40.5337V57.4967ZM37.1438 53.8317C36.9248 54.0707 36.7788 54.4169 36.7788 54.8463C36.7788 55.2406 36.9248 55.5864 37.1438 55.8254C37.3733 56.0761 37.6652 56.1954 37.9264 56.1954C38.2077 56.1954 38.5416 56.064 38.7814 55.8015C38.9588 55.6106 39.1256 55.2883 39.1256 54.8467C39.1256 54.393 38.9691 54.0824 38.7917 53.8677C38.5519 53.581 38.2705 53.4738 37.9469 53.4738C37.6447 53.4738 37.3837 53.5692 37.1438 53.8317Z" fill="#532322"/>
<path d="M46.5527 55.133H43.0793C43.0793 55.4197 43.173 55.8015 43.361 56.0404C43.5902 56.3268 43.9031 56.3745 44.1327 56.3745C44.3519 56.3745 44.5811 56.3268 44.7376 56.2192C44.7585 56.2075 44.9359 56.076 45.0612 55.7776L46.4796 55.9446C46.271 56.6968 45.8538 57.0907 45.5827 57.2819C45.1339 57.5921 44.6333 57.6758 44.1117 57.6758C43.4128 57.6758 42.7976 57.5327 42.2551 56.9119C41.8485 56.4461 41.5565 55.742 41.5565 54.8584C41.5565 54.0941 41.7964 53.3064 42.2658 52.7572C42.8288 52.1126 43.5278 51.9933 44.0493 51.9933C44.5708 51.9933 45.322 52.1005 45.8953 52.7928C46.4481 53.4616 46.5527 54.2971 46.5527 54.9539V55.133ZM45.1651 54.1063C45.1548 54.0585 45.0817 53.7245 44.8628 53.4855C44.6961 53.3064 44.4559 53.1871 44.1536 53.1871C43.7676 53.1871 43.538 53.3662 43.3922 53.5332C43.2773 53.6764 43.173 53.8676 43.1311 54.1063H45.1651Z" fill="white"/>
<path d="M52.5609 57.4967H51.0587V56.8521C50.8295 57.2339 50.4122 57.6759 49.5884 57.6759C48.8998 57.6759 48.3991 57.4251 47.9922 56.9476C47.5125 56.3984 47.2624 55.6345 47.2624 54.8104C47.2624 53.9272 47.5437 53.1989 47.9922 52.7095C48.3991 52.2679 48.9728 51.9933 49.609 51.9933C50.1203 51.9933 50.6833 52.1842 51.059 52.769V48.7938H52.5609V57.4967ZM49.1708 53.8317C48.9519 54.0707 48.8057 54.4169 48.8057 54.8463C48.8057 55.2406 48.9519 55.5864 49.1708 55.8254C49.4004 56.0761 49.6924 56.1954 49.9531 56.1954C50.2348 56.1954 50.5687 56.064 50.8086 55.8015C50.986 55.6106 51.1527 55.2883 51.1527 54.8467C51.1527 54.393 50.9962 54.0824 50.8188 53.8677C50.579 53.581 50.2973 53.4738 49.9741 53.4738C49.6714 53.4738 49.411 53.5692 49.1708 53.8317Z" fill="white"/>
<path d="M9.78563 5.92307C8.40797 7.91283 6.36985 11.4021 5.38092 16.1929C4.55386 20.1995 4.77269 23.6046 5.09455 25.8333C7.25498 27.4087 9.01708 27.7268 10.2032 27.739C12.9701 27.7673 16.1076 26.1665 19.1081 26.0939C19.7287 26.079 20.368 26.0981 20.368 26.0981C21.6723 26.1373 22.7592 26.2777 23.547 26.4095C22.8541 26.214 11.8962 22.9419 9.63643 13.4638C8.92805 10.4927 9.291 7.8204 9.78563 5.92307Z" fill="#EA9127"/>
<path d="M5.32019 27.1945C5.81673 29.548 6.92715 33.1636 9.62308 36.7355C15.299 44.2568 23.6996 45.8838 25.9127 46.2417C25.5421 44.1313 25.2454 41.1116 25.6709 37.5325C26.0985 33.9355 27.1029 31.0573 27.9625 29.0885C24.0822 27.0766 21.0398 26.8655 18.9462 27.0651C15.0087 27.4406 12.1708 29.4839 8.02431 28.3581C6.8217 28.0316 5.89911 27.5445 5.32023 27.1946L5.32019 27.1945Z" fill="#EA9127"/>
<path d="M11.0791 38.4789C12.8968 38.4205 15.4579 38.11 18.2746 36.9735C23.6838 34.7913 26.7238 30.8995 27.9625 29.0885C27.5124 30.1168 27.0913 31.2381 26.7287 32.4521C25.1151 37.8534 25.3542 42.7569 25.9127 46.2417C22.3049 45.6103 17.3217 44.1042 12.922 40.2684C12.249 39.6818 11.6365 39.0813 11.0791 38.4789Z" fill="#903518"/>
<path d="M9.78609 5.92307C8.73943 7.43382 7.55522 9.45795 6.60174 11.9891C5.17666 15.772 4.84434 19.1543 4.80963 21.471C5.39006 20.8827 5.97518 20.5126 6.48957 20.2727C10.5591 18.3741 15.4417 22.1728 15.8092 22.4667C14.6856 21.6446 10.4899 18.3706 9.45513 12.5859C8.94974 9.76076 9.38465 7.37887 9.78613 5.92314L9.78609 5.92307Z" fill="#F6D365"/>
<path d="M5.32023 27.1946C6.47616 28.5046 8.97004 30.9412 12.9004 32.097C20.6168 34.366 27.1199 29.7126 27.9625 29.0886C26.8948 30.6872 24.4922 33.8171 20.2377 36.0585C16.4552 38.0513 12.9646 38.4169 11.0791 38.4789C9.99533 37.2951 8.64914 35.584 7.4768 33.3085C6.26453 30.9556 5.64924 28.7971 5.32019 27.1946H5.32023Z" fill="#CC5520"/>
<path d="M24.4914 0C24.044 0.808054 23.4563 2.10531 23.2144 3.79713C23.0269 5.1076 23.1081 6.22758 23.2309 7.03107C24.0595 6.73127 24.976 6.4398 25.9751 6.1803C27.0619 5.89805 28.0829 5.69611 29.0181 5.55148C28.7174 4.77076 28.2165 3.7225 27.376 2.63808C26.3643 1.33235 25.2657 0.497225 24.4913 0H24.4914Z" fill="#EA9127"/>
<path d="M44.2851 0.698425C43.5311 1.10491 42.4656 1.78948 41.4247 2.89172C40.3666 4.0123 39.7392 5.13479 39.3774 5.91834C40.2692 6.12192 41.2381 6.38458 42.2643 6.72567C43.285 7.06494 44.2135 7.43247 45.0462 7.80113C45.2383 6.97375 45.4329 5.69474 45.2618 4.1482C45.095 2.63935 44.644 1.4578 44.2851 0.698425Z" fill="#EA9127"/>
<path d="M23.1771 8.15701C23.0513 9.48249 23.0042 11.1175 23.1916 12.9727C23.3913 14.9499 23.8027 16.6347 24.2234 17.9607C25.3482 15.3003 26.7403 13.6373 27.8615 12.5857C28.8841 11.6265 30.016 10.8622 30.4797 9.33775C30.8359 8.16685 30.6438 7.05409 30.4098 6.26944C29.453 6.36866 28.3823 6.53609 27.2287 6.81123C25.6579 7.18588 24.3004 7.67267 23.1771 8.15701Z" fill="#E39334"/>
<path d="M31.373 6.18005C31.5238 6.68619 31.7052 7.52411 31.6103 8.555C31.5742 8.94783 31.486 9.8157 30.9933 10.7467C30.3709 11.9232 29.7114 12.0501 28.2062 13.7853C27.8201 14.2305 27.5267 14.6104 27.3465 14.851C29.5374 15.95 31.7282 17.049 33.9191 18.148C34.9797 17.5853 39.8448 14.8671 40.6925 9.79852C40.8151 9.06687 40.8706 8.18553 40.7542 7.17343C39.3684 6.7689 37.6524 6.38999 35.6651 6.2132C34.0549 6.06996 32.6068 6.08964 31.3729 6.18016L31.373 6.18005Z" fill="#F6D365"/>
<path d="M45.0888 8.79883C45.1755 9.53407 45.2261 10.3298 45.2192 11.1787C45.1946 14.3005 44.4034 16.8891 43.6222 18.7329C43.6185 18.5861 43.5476 16.8824 42.0528 15.9106C40.6273 14.9835 39.1203 15.5122 38.9595 15.5718C39.5607 14.8993 40.3441 13.8619 40.9399 12.4396C41.8111 10.3604 41.8478 8.49352 41.788 7.44574C42.8884 7.89678 43.9884 8.34786 45.0888 8.7989V8.79883Z" fill="#EA9127"/>
<path d="M24.4748 18.9875C26.0069 21.7752 27.5389 24.5627 29.071 27.3503C30.0715 27.7359 31.601 28.1933 33.5123 28.2727C35.5285 28.3563 37.1652 27.9858 38.2149 27.6612C39.9268 24.9758 41.6384 22.2904 43.3503 19.6051C42.7928 19.7557 42.0615 19.9247 41.1947 20.0488C40.4638 20.1535 39.5684 20.2361 38.393 20.2308C36.0548 20.2202 35.9328 19.877 33.7539 19.8045C31.7926 19.7394 31.7829 20.0137 29.5551 19.9045C28.2282 19.8395 27.229 19.6931 26.333 19.4977C25.5755 19.3325 24.9443 19.1438 24.4748 18.9876L24.4748 18.9875Z" fill="#F6D365"/>
<path d="M29.0418 29.0423C30.331 30.5904 31.6202 32.1384 32.9094 33.6865C31.7143 35.3786 30.4011 37.515 29.2153 40.0971C28.1247 42.4718 27.3933 44.6758 26.8933 46.5605C26.3722 43.2981 26.1032 38.5858 27.5413 33.2902C27.9678 31.7198 28.4889 30.3024 29.0417 29.0424L29.0418 29.0423Z" fill="#F6D365"/>
<path d="M37.2621 30.0421C35.6292 31.7361 33.6844 34.0725 31.9048 37.1148C29.8578 40.6139 28.7152 43.8744 28.0537 46.35C30.4832 46.7553 32.4783 46.7101 33.8475 46.5901C36.1022 46.3923 37.0248 45.9602 37.6903 45.4844C37.9734 45.2822 38.8446 44.6596 39.3357 43.6409C40.3917 41.4505 38.7367 39.4091 37.8159 35.2244C37.5529 34.0298 37.2637 32.2684 37.262 30.0421H37.2621Z" fill="#903518"/>
<path d="M32.8888 19.2235C32.3265 18.8491 31.5614 18.3597 30.6274 17.8201C30.1268 17.5309 29.7333 17.3173 29.3043 17.0847C28.6708 16.7414 27.8426 16.3031 26.8544 15.8088C26.7177 16.0824 26.4924 16.6252 26.4961 17.3411C26.4993 17.9691 26.6773 18.4544 26.7999 18.7242C27.5632 18.6958 28.3922 18.6988 29.2773 18.7512C30.6194 18.8307 31.8308 19.0081 32.8888 19.2235L32.8888 19.2235Z" fill="#532322"/>
<path d="M34.7896 19.2894C35.8642 18.6778 37.0431 18.0626 38.3257 17.4694C39.2497 17.0421 40.1459 16.664 41.0061 16.3289C41.1244 16.6115 41.3257 17.2007 41.2441 17.9512C41.1806 18.5374 40.9712 18.9778 40.8272 19.229C40.0655 19.1422 39.2303 19.0833 38.3312 19.0731C37.0175 19.0582 35.8278 19.1503 34.7896 19.2894Z" fill="#532322"/>
<path d="M30.2524 28.8103C31.119 29.032 32.2332 29.2366 33.5381 29.2812C34.8585 29.3264 35.9957 29.1949 36.8815 29.0297C35.7264 30.2614 34.5714 31.4931 33.4164 32.7248C32.3618 31.42 31.307 30.1152 30.2524 28.8103Z" fill="#532322"/>
<path d="M34.7656 19.2949C35.3534 18.9619 36.1517 18.5288 37.1222 18.0578C37.6422 17.8053 38.0503 17.6205 38.4947 17.4194C39.1514 17.1224 40.009 16.7449 41.0301 16.323C41.1469 16.6058 41.3327 17.1633 41.2773 17.877C41.2288 18.5032 41.0165 18.9744 40.8747 19.2347C40.1155 19.1515 39.2884 19.0949 38.4018 19.0835C37.0575 19.0663 35.8365 19.1562 34.7657 19.2949L34.7656 19.2949Z" fill="#532322"/>
<path d="M24.2234 17.9606C23.6081 15.8874 23.1056 13.3324 23.078 10.4029C23.0706 9.61472 23.0982 8.86083 23.1516 8.14464C24.2494 7.68071 25.5633 7.21546 27.0748 6.84849C28.2879 6.55393 29.4111 6.37538 30.4098 6.26944C30.2028 6.71453 29.8457 7.39835 29.275 8.13561C27.6233 10.2695 25.9905 10.5164 24.9213 11.773C24.1269 12.7067 23.4374 14.4405 24.2234 17.9606L24.2234 17.9606Z" fill="#CC5520"/>
<path d="M39.0833 13.6897C38.1324 13.4743 36.5103 12.9698 34.916 11.6927C32.437 9.70704 31.6233 7.13353 31.3726 6.18009C32.6568 6.08589 34.1895 6.06735 35.9054 6.23574C37.7949 6.42112 39.4286 6.78637 40.7538 7.17339C40.8316 7.86132 40.8588 8.76802 40.6836 9.80644C40.378 11.6189 39.6049 12.9435 39.0833 13.6897V13.6897Z" fill="#CC5520"/>
<path d="M41.7876 7.44543C42.8876 7.89651 43.988 8.34755 45.0884 8.7986C45.2158 9.90952 45.2746 11.2574 45.1365 12.7762C44.9091 15.2833 44.2315 17.3134 43.6214 18.7327C43.8051 18.2367 45.221 14.2312 43.0279 11.4523C42.7139 11.0542 42.2625 10.6013 41.6109 10.1957C41.6675 9.89337 41.7159 9.56801 41.7505 9.22137C41.8151 8.56748 41.8173 7.97 41.7876 7.44551V7.44543Z" fill="#CC5520"/>
<path d="M39.3774 5.91834C39.7275 5.16136 40.2997 4.14174 41.2231 3.1111C42.3257 1.88058 43.483 1.13173 44.2852 0.698425C44.6253 1.41985 45.0083 2.43565 45.2015 3.69573C45.4678 5.43595 45.2563 6.88716 45.0462 7.8011C44.9202 6.56654 44.1257 5.50448 42.9923 5.06074C41.7487 4.57406 40.3067 4.91332 39.3774 5.91834Z" fill="#CC5520"/>
<path d="M23.2315 7.03107C23.1072 6.21756 23.0227 5.06083 23.229 3.70253C23.479 2.05497 24.0535 0.791458 24.492 0C25.1828 0.443381 26.0667 1.11397 26.9253 2.09137C28.0556 3.37805 28.6771 4.66709 29.0187 5.55148C28.1595 4.40873 26.681 3.94073 25.3805 4.38058C24.2364 4.76749 23.402 5.79879 23.2315 7.03107H23.2315Z" fill="#CC5520"/>
<path d="M31.6741 39.5667C29.4715 42.1899 28.4963 44.8231 28.0537 46.3505C29.2289 44.2643 32.55 39.0124 37.6623 38.5524C38.0171 38.5205 38.3859 38.5113 38.7686 38.5293C38.5181 37.8263 38.2783 37.0632 38.0634 36.2422C37.9356 35.7545 37.8258 35.2812 37.7318 34.8247C36.3032 35.5254 33.8774 36.9424 31.6741 39.5667Z" fill="#CC5520"/>
<path d="M27.2832 34.3117C26.6949 36.9397 26.2953 40.1866 26.5733 43.8648C26.6447 44.809 26.7552 45.7084 26.8934 46.5604C27.113 45.7719 27.363 44.9529 27.6479 44.1078C28.0367 42.9556 28.449 41.8785 28.8687 40.8789C28.3402 38.6896 27.8117 36.5006 27.2832 34.3116V34.3117Z" fill="#CC5520"/>
<path d="M29.071 27.3503C27.539 24.5627 26.0069 21.7752 24.4748 18.9875C25.2555 20.4215 26.163 21.2167 26.8081 21.6654C30.8142 24.4516 36.7823 22.2801 39.8791 21.1497C41.4404 20.5797 42.6451 19.9811 43.343 19.6123C41.6336 22.2953 39.9243 24.9782 38.2149 27.6612C37.186 27.9794 35.6022 28.3387 33.6529 28.2775C31.6672 28.2151 30.0845 27.7409 29.071 27.3503H29.071Z" fill="#EA9127"/>
<path d="M31.3729 6.18C31.5449 6.72836 31.7594 7.67765 31.597 8.83522C31.5431 9.22015 31.4408 10.1025 30.854 10.9912C30.3943 11.6874 30.0392 11.9114 29.2023 12.7311C28.7192 13.2045 28.0589 13.9043 27.3465 14.8509C28.1502 15.1617 29.0912 15.4433 30.1576 15.6185C33.7699 16.212 36.7816 15.2509 38.4149 14.5686C38.6379 14.2756 38.8608 13.9826 39.0837 13.6895C37.5443 12.8357 35.4941 11.4473 33.5813 9.25363C32.6455 8.18048 31.9256 7.12455 31.3729 6.17996L31.3729 6.18Z" fill="#EA9127"/>
<path d="M31.6138 34.135C29.8099 35.2685 27.6447 34.4539 27.2829 34.3115C27.268 35.1194 27.2687 35.9488 27.2878 36.7987C27.3424 39.2267 27.5392 41.4993 27.8233 43.5972C28.5831 41.4046 29.6512 38.9334 31.1746 36.3617C31.744 35.4004 32.3271 34.5094 32.9093 33.6864C32.7957 33.5501 32.6822 33.4137 32.5687 33.2774C32.3282 33.5778 32.0163 33.882 31.6138 34.135Z" fill="#EA9127"/>
<path d="M28.0537 46.35C28.5552 44.7536 29.6137 42.0958 31.8792 39.4572C33.9975 36.99 36.2792 35.5773 37.7318 34.8245C37.5474 33.8961 37.3971 32.859 37.3195 31.7267C37.2791 31.1387 37.2619 30.5762 37.2621 30.0421C35.8277 31.5304 34.2467 33.4157 32.7492 35.7404C30.189 39.7149 28.8187 43.5051 28.0537 46.35Z" fill="#EA9127"/>
<path d="M24.5061 0C24.2602 0.422376 24.0065 0.927471 23.784 1.51363C23.4228 2.46461 23.2568 3.33107 23.18 4.01812C23.2169 3.81475 23.4204 2.80773 24.2925 2.2911C25.2869 1.70204 26.758 1.98338 27.7312 3.09123C27.2568 2.43253 26.6101 1.6695 25.7444 0.929476C25.3176 0.564604 24.8989 0.257737 24.506 0H24.5061Z" fill="#903518"/>
<path d="M44.2852 0.698425C44.5067 1.12973 44.7329 1.65292 44.9173 2.2632C45.2203 3.26742 45.3059 4.16464 45.3151 4.84717C45.3 4.66972 45.1898 3.57063 44.3021 2.96712C43.3471 2.31789 41.875 2.50168 40.8599 3.53188C41.3414 2.94035 42.0032 2.24645 42.8855 1.5892C43.3758 1.22393 43.8511 0.932 44.2852 0.698425Z" fill="#903518"/>
<path d="M38.2148 27.6611C39.4977 25.6477 40.7803 23.6341 42.0632 21.6207C40.9272 22.8659 38.6037 25.0648 34.9702 26.3539C32.6141 27.1899 30.515 27.3566 29.0707 27.3502C30.1482 27.7628 31.8571 28.2664 33.9978 28.281C35.7601 28.293 37.211 27.9695 38.2148 27.6611Z" fill="#CC5520"/>
</svg>
