<svg width="16" height="16" viewBox="0 0 16 16" fill="none" xmlns="http://www.w3.org/2000/svg">
<g clip-path="url(#clip0_2005_115)">
<path fill-rule="evenodd" clip-rule="evenodd" d="M3.33333 6.66667C3.33333 5.78261 3.68452 4.93477 4.30964 4.30964C4.93476 3.68452 5.7826 3.33333 6.66666 3.33333C7.55071 3.33333 8.39856 3.68452 9.02368 4.30964C9.6488 4.93477 9.99999 5.78261 9.99999 6.66667C9.99999 7.55072 9.6488 8.39857 9.02368 9.02369C8.39856 9.64881 7.55071 10 6.66666 10C5.7826 10 4.93476 9.64881 4.30964 9.02369C3.68452 8.39857 3.33333 7.55072 3.33333 6.66667ZM6.66666 2C5.9275 2 5.19891 2.17558 4.54089 2.51229C3.88288 2.84899 3.31425 3.33719 2.88184 3.93667C2.44943 4.53615 2.16561 5.22978 2.05375 5.96042C1.94189 6.69107 2.00518 7.43784 2.23843 8.13923C2.47167 8.84063 2.86818 9.47659 3.39532 9.99474C3.92246 10.5129 4.56514 10.8984 5.27044 11.1196C5.97575 11.3407 6.72349 11.3912 7.45211 11.2668C8.18072 11.1424 8.86936 10.8466 9.46133 10.404L12.8613 13.8047C12.9863 13.9298 13.1559 14.0001 13.3328 14.0001C13.5096 14.0002 13.6792 13.93 13.8043 13.805C13.9294 13.68 13.9997 13.5104 13.9998 13.3336C13.9999 13.1567 13.9297 12.9871 13.8047 12.862L10.4047 9.462C10.9235 8.76834 11.2391 7.94395 11.3161 7.08111C11.393 6.21828 11.2282 5.35105 10.8403 4.57654C10.4523 3.80202 9.85637 3.15079 9.11925 2.69574C8.38214 2.24068 7.53292 1.99978 6.66666 2Z" fill="#323749"/>
</g>
<defs>
<clipPath id="clip0_2005_115">
<rect width="16" height="16" fill="white"/>
</clipPath>
</defs>
</svg>
