<svg width="16" height="16" viewBox="0 0 16 16" fill="none" xmlns="http://www.w3.org/2000/svg">
<path d="M5.99996 3.33333C5.82315 3.33333 5.65358 3.40357 5.52855 3.5286C5.40353 3.65362 5.33329 3.82319 5.33329 4C5.33329 4.17681 5.40353 4.34638 5.52855 4.47141C5.65358 4.59643 5.82315 4.66667 5.99996 4.66667C6.17677 4.66667 6.34634 4.59643 6.47136 4.47141C6.59639 4.34638 6.66663 4.17681 6.66663 4C6.66663 3.82319 6.59639 3.65362 6.47136 3.5286C6.34634 3.40357 6.17677 3.33333 5.99996 3.33333ZM4.11329 3.33333C4.25103 2.94298 4.50645 2.60496 4.84436 2.36586C5.18227 2.12676 5.58602 1.99837 5.99996 1.99837C6.4139 1.99837 6.81765 2.12676 7.15556 2.36586C7.49347 2.60496 7.74889 2.94298 7.88663 3.33333H12.6666C12.8434 3.33333 13.013 3.40357 13.138 3.5286C13.2631 3.65362 13.3333 3.82319 13.3333 4C13.3333 4.17681 13.2631 4.34638 13.138 4.47141C13.013 4.59643 12.8434 4.66667 12.6666 4.66667H7.88663C7.74889 5.05702 7.49347 5.39505 7.15556 5.63414C6.81765 5.87324 6.4139 6.00164 5.99996 6.00164C5.58602 6.00164 5.18227 5.87324 4.84436 5.63414C4.50645 5.39505 4.25103 5.05702 4.11329 4.66667H3.33329C3.15648 4.66667 2.98691 4.59643 2.86189 4.47141C2.73686 4.34638 2.66663 4.17681 2.66663 4C2.66663 3.82319 2.73686 3.65362 2.86189 3.5286C2.98691 3.40357 3.15648 3.33333 3.33329 3.33333H4.11329ZM9.99996 7.33333C9.82315 7.33333 9.65358 7.40357 9.52855 7.5286C9.40353 7.65362 9.33329 7.82319 9.33329 8C9.33329 8.17681 9.40353 8.34638 9.52855 8.47141C9.65358 8.59643 9.82315 8.66667 9.99996 8.66667C10.1768 8.66667 10.3463 8.59643 10.4714 8.47141C10.5964 8.34638 10.6666 8.17681 10.6666 8C10.6666 7.82319 10.5964 7.65362 10.4714 7.5286C10.3463 7.40357 10.1768 7.33333 9.99996 7.33333ZM8.11329 7.33333C8.25103 6.94298 8.50645 6.60496 8.84436 6.36586C9.18227 6.12676 9.58602 5.99837 9.99996 5.99837C10.4139 5.99837 10.8177 6.12676 11.1556 6.36586C11.4935 6.60496 11.7489 6.94298 11.8866 7.33333H12.6666C12.8434 7.33333 13.013 7.40357 13.138 7.5286C13.2631 7.65362 13.3333 7.82319 13.3333 8C13.3333 8.17681 13.2631 8.34638 13.138 8.47141C13.013 8.59643 12.8434 8.66667 12.6666 8.66667H11.8866C11.7489 9.05702 11.4935 9.39505 11.1556 9.63414C10.8177 9.87324 10.4139 10.0016 9.99996 10.0016C9.58602 10.0016 9.18227 9.87324 8.84436 9.63414C8.50645 9.39505 8.25103 9.05702 8.11329 8.66667H3.33329C3.15648 8.66667 2.98691 8.59643 2.86189 8.47141C2.73686 8.34638 2.66663 8.17681 2.66663 8C2.66663 7.82319 2.73686 7.65362 2.86189 7.5286C2.98691 7.40357 3.15648 7.33333 3.33329 7.33333H8.11329ZM5.99996 11.3333C5.82315 11.3333 5.65358 11.4036 5.52855 11.5286C5.40353 11.6536 5.33329 11.8232 5.33329 12C5.33329 12.1768 5.40353 12.3464 5.52855 12.4714C5.65358 12.5964 5.82315 12.6667 5.99996 12.6667C6.17677 12.6667 6.34634 12.5964 6.47136 12.4714C6.59639 12.3464 6.66663 12.1768 6.66663 12C6.66663 11.8232 6.59639 11.6536 6.47136 11.5286C6.34634 11.4036 6.17677 11.3333 5.99996 11.3333ZM4.11329 11.3333C4.25103 10.943 4.50645 10.605 4.84436 10.3659C5.18227 10.1268 5.58602 9.99837 5.99996 9.99837C6.4139 9.99837 6.81765 10.1268 7.15556 10.3659C7.49347 10.605 7.74889 10.943 7.88663 11.3333H12.6666C12.8434 11.3333 13.013 11.4036 13.138 11.5286C13.2631 11.6536 13.3333 11.8232 13.3333 12C13.3333 12.1768 13.2631 12.3464 13.138 12.4714C13.013 12.5964 12.8434 12.6667 12.6666 12.6667H7.88663C7.74889 13.057 7.49347 13.395 7.15556 13.6341C6.81765 13.8732 6.4139 14.0016 5.99996 14.0016C5.58602 14.0016 5.18227 13.8732 4.84436 13.6341C4.50645 13.395 4.25103 13.057 4.11329 12.6667H3.33329C3.15648 12.6667 2.98691 12.5964 2.86189 12.4714C2.73686 12.3464 2.66663 12.1768 2.66663 12C2.66663 11.8232 2.73686 11.6536 2.86189 11.5286C2.98691 11.4036 3.15648 11.3333 3.33329 11.3333H4.11329Z" fill="#EA9127"/>
</svg>
