<svg width="16" height="16" viewBox="0 0 16 16" fill="none" xmlns="http://www.w3.org/2000/svg">
<path d="M6.00008 3.33332C5.82327 3.33332 5.6537 3.40356 5.52868 3.52858C5.40365 3.65361 5.33341 3.82317 5.33341 3.99999C5.33341 4.1768 5.40365 4.34637 5.52868 4.47139C5.6537 4.59641 5.82327 4.66665 6.00008 4.66665C6.17689 4.66665 6.34646 4.59641 6.47149 4.47139C6.59651 4.34637 6.66675 4.1768 6.66675 3.99999C6.66675 3.82317 6.59651 3.65361 6.47149 3.52858C6.34646 3.40356 6.17689 3.33332 6.00008 3.33332ZM4.11341 3.33332C4.25115 2.94296 4.50657 2.60494 4.84448 2.36585C5.18239 2.12675 5.58614 1.99835 6.00008 1.99835C6.41402 1.99835 6.81777 2.12675 7.15568 2.36585C7.49359 2.60494 7.74901 2.94296 7.88675 3.33332H12.6667C12.8436 3.33332 13.0131 3.40356 13.1382 3.52858C13.2632 3.65361 13.3334 3.82317 13.3334 3.99999C13.3334 4.1768 13.2632 4.34637 13.1382 4.47139C13.0131 4.59641 12.8436 4.66665 12.6667 4.66665H7.88675C7.74901 5.05701 7.49359 5.39503 7.15568 5.63413C6.81777 5.87322 6.41402 6.00162 6.00008 6.00162C5.58614 6.00162 5.18239 5.87322 4.84448 5.63413C4.50657 5.39503 4.25115 5.05701 4.11341 4.66665H3.33341C3.1566 4.66665 2.98703 4.59641 2.86201 4.47139C2.73699 4.34637 2.66675 4.1768 2.66675 3.99999C2.66675 3.82317 2.73699 3.65361 2.86201 3.52858C2.98703 3.40356 3.1566 3.33332 3.33341 3.33332H4.11341ZM10.0001 7.33332C9.82327 7.33332 9.6537 7.40356 9.52868 7.52858C9.40365 7.65361 9.33342 7.82317 9.33342 7.99999C9.33342 8.1768 9.40365 8.34637 9.52868 8.47139C9.6537 8.59641 9.82327 8.66665 10.0001 8.66665C10.1769 8.66665 10.3465 8.59641 10.4715 8.47139C10.5965 8.34637 10.6667 8.1768 10.6667 7.99999C10.6667 7.82317 10.5965 7.65361 10.4715 7.52858C10.3465 7.40356 10.1769 7.33332 10.0001 7.33332ZM8.11341 7.33332C8.25115 6.94296 8.50657 6.60494 8.84448 6.36585C9.18239 6.12675 9.58614 5.99835 10.0001 5.99835C10.414 5.99835 10.8178 6.12675 11.1557 6.36585C11.4936 6.60494 11.749 6.94296 11.8867 7.33332H12.6667C12.8436 7.33332 13.0131 7.40356 13.1382 7.52858C13.2632 7.65361 13.3334 7.82317 13.3334 7.99999C13.3334 8.1768 13.2632 8.34637 13.1382 8.47139C13.0131 8.59641 12.8436 8.66665 12.6667 8.66665H11.8867C11.749 9.05701 11.4936 9.39503 11.1557 9.63413C10.8178 9.87322 10.414 10.0016 10.0001 10.0016C9.58614 10.0016 9.18239 9.87322 8.84448 9.63413C8.50657 9.39503 8.25115 9.05701 8.11341 8.66665H3.33341C3.1566 8.66665 2.98703 8.59641 2.86201 8.47139C2.73699 8.34637 2.66675 8.1768 2.66675 7.99999C2.66675 7.82317 2.73699 7.65361 2.86201 7.52858C2.98703 7.40356 3.1566 7.33332 3.33341 7.33332H8.11341ZM6.00008 11.3333C5.82327 11.3333 5.6537 11.4036 5.52868 11.5286C5.40365 11.6536 5.33341 11.8232 5.33341 12C5.33341 12.1768 5.40365 12.3464 5.52868 12.4714C5.6537 12.5964 5.82327 12.6667 6.00008 12.6667C6.17689 12.6667 6.34646 12.5964 6.47149 12.4714C6.59651 12.3464 6.66675 12.1768 6.66675 12C6.66675 11.8232 6.59651 11.6536 6.47149 11.5286C6.34646 11.4036 6.17689 11.3333 6.00008 11.3333ZM4.11341 11.3333C4.25115 10.943 4.50657 10.6049 4.84448 10.3658C5.18239 10.1267 5.58614 9.99835 6.00008 9.99835C6.41402 9.99835 6.81777 10.1267 7.15568 10.3658C7.49359 10.6049 7.74901 10.943 7.88675 11.3333H12.6667C12.8436 11.3333 13.0131 11.4036 13.1382 11.5286C13.2632 11.6536 13.3334 11.8232 13.3334 12C13.3334 12.1768 13.2632 12.3464 13.1382 12.4714C13.0131 12.5964 12.8436 12.6667 12.6667 12.6667H7.88675C7.74901 13.057 7.49359 13.395 7.15568 13.6341C6.81777 13.8732 6.41402 14.0016 6.00008 14.0016C5.58614 14.0016 5.18239 13.8732 4.84448 13.6341C4.50657 13.395 4.25115 13.057 4.11341 12.6667H3.33341C3.1566 12.6667 2.98703 12.5964 2.86201 12.4714C2.73699 12.3464 2.66675 12.1768 2.66675 12C2.66675 11.8232 2.73699 11.6536 2.86201 11.5286C2.98703 11.4036 3.1566 11.3333 3.33341 11.3333H4.11341Z" fill="white"/>
</svg>
