<svg width="54" height="58" viewBox="0 0 54 58" fill="none" xmlns="http://www.w3.org/2000/svg">
<path d="M53.1245 48.3776H41.3845V57.9964H53.1245V48.3776Z" fill="white"/>
<path d="M3.34208 53.5572V57.4968H1.55465V53.5572H0.90918V52.1722H1.55465V51.122C1.55465 50.5251 1.61675 49.8445 2.17529 49.2715C2.53524 48.9014 3.04417 48.6625 3.72691 48.6625C4.12408 48.6625 4.44677 48.7344 4.74478 48.8416V50.3459C4.54618 50.2266 4.28545 50.1429 4.06199 50.1429C3.78896 50.1429 3.61515 50.2622 3.54067 50.3577C3.34208 50.6084 3.34208 51.0265 3.34208 51.2769V52.1726H4.75715V53.5572H3.34208Z" fill="white"/>
<path d="M9.87859 56.8161C9.46135 57.2937 8.75216 57.6758 7.84462 57.6758C6.93724 57.6758 6.2279 57.2937 5.81066 56.8161C5.34137 56.2787 5.11182 55.5148 5.11182 54.8346C5.11182 54.154 5.34137 53.3901 5.81066 52.8526C6.2279 52.3751 6.93724 51.9933 7.84462 51.9933C8.75216 51.9933 9.46135 52.3751 9.87859 52.8526C10.348 53.3901 10.5774 54.154 10.5774 54.8346C10.5774 55.5148 10.348 56.279 9.87859 56.8161ZM6.99982 53.8317C6.78077 54.0824 6.65564 54.4047 6.65564 54.8346C6.65564 55.3239 6.82246 55.6341 6.99982 55.8371C7.18755 56.0522 7.45875 56.2192 7.85505 56.2192C8.18888 56.2192 8.47056 56.0878 8.68961 55.8371C8.90855 55.5864 9.03376 55.264 9.03376 54.8346C9.03376 54.4047 8.90855 54.0824 8.68961 53.8317C8.47056 53.5809 8.18888 53.4495 7.8447 53.4495C7.50047 53.4495 7.21884 53.5809 6.99986 53.8317H6.99982Z" fill="white"/>
<path d="M13.1225 54.5956L11.2763 52.1721H13.1955L14.0612 53.4018L14.927 52.1721H16.8462L15 54.5956L17.2738 57.4967H15.3337L14.0612 55.7773L12.7887 57.4967H10.8486L13.1225 54.5956Z" fill="white"/>
<path d="M17.8787 52.1718H19.3806V52.7929C19.7665 52.1245 20.3298 52.0408 20.6844 52.0408C20.8826 52.0408 21.2477 52.0646 21.5606 52.2794C21.8005 52.4347 21.9987 52.6975 22.1238 53.0198C22.2386 52.8047 22.4159 52.554 22.7184 52.3392C23.0417 52.1123 23.3442 52.0408 23.7093 52.0408C24.2726 52.0408 24.7315 52.2317 25.0131 52.5422C25.4616 53.0315 25.4929 53.7477 25.4929 54.1299V57.4964H23.991V54.7983C23.991 54.5238 23.991 54.0462 23.7927 53.7598C23.6676 53.5807 23.4695 53.4731 23.2504 53.4731C23 53.4731 22.7914 53.6046 22.6663 53.7958C22.468 54.0821 22.4368 54.4999 22.4368 54.8461V57.4964H20.9349V54.7268C20.9349 54.3685 20.9244 53.9507 20.6949 53.6879C20.5385 53.5091 20.3507 53.4731 20.1943 53.4731C19.996 53.4731 19.8188 53.533 19.6728 53.6879C19.3911 53.9985 19.3806 54.5953 19.3806 54.7745V57.4964H17.8787V52.1718H17.8787Z" fill="white"/>
<path d="M27.5272 48.901C28.0175 48.901 28.4034 49.3426 28.4034 49.9039C28.4034 50.4648 28.0175 50.9068 27.5272 50.9068C27.037 50.9068 26.6511 50.4648 26.6511 49.9039C26.6511 49.3426 27.037 48.901 27.5272 48.901ZM28.4034 52.2742V57.5988L26.7763 57.4964V52.1721L28.4034 52.2742Z" fill="white"/>
<path d="M29.5505 52.1725H31.0524V52.805C31.5114 52.1365 32.0538 52.0289 32.4919 52.0289C32.8987 52.0289 33.4306 52.1126 33.8269 52.5663C34.2651 53.0678 34.2963 53.7003 34.2963 54.1305V57.4967H32.7943V54.763C32.7943 54.4168 32.784 53.9749 32.5441 53.7007C32.4293 53.5692 32.2415 53.4617 31.9704 53.4617C31.6574 53.4617 31.4592 53.6048 31.3445 53.7484C31.0941 54.0347 31.0524 54.4168 31.0524 54.763V57.4967H29.5505V52.1725Z" fill="white"/>
<path d="M40.5337 57.4967H39.0318V56.8521C38.8023 57.2339 38.385 57.6759 37.5612 57.6759C36.8725 57.6759 36.372 57.4251 35.9652 56.9476C35.4854 56.3984 35.2351 55.6345 35.2351 54.8104C35.2351 53.9272 35.5166 53.1989 35.9652 52.7095C36.372 52.2679 36.9456 51.9933 37.5821 51.9933C38.093 51.9933 38.6561 52.1842 39.0318 52.769V48.7938H40.5337V57.4967ZM37.1438 53.8317C36.9247 54.0707 36.7787 54.4169 36.7787 54.8463C36.7787 55.2406 36.9247 55.5864 37.1438 55.8254C37.3732 56.0761 37.6652 56.1954 37.9263 56.1954C38.2076 56.1954 38.5415 56.064 38.7813 55.8015C38.9587 55.6106 39.1255 55.2883 39.1255 54.8467C39.1255 54.393 38.969 54.0824 38.7916 53.8677C38.5518 53.581 38.2704 53.4738 37.9469 53.4738C37.6446 53.4738 37.3837 53.5692 37.1438 53.8317Z" fill="white"/>
<path d="M46.5529 55.133H43.0794C43.0794 55.4197 43.1731 55.8015 43.3611 56.0404C43.5903 56.3268 43.9032 56.3745 44.1328 56.3745C44.3521 56.3745 44.5813 56.3268 44.7377 56.2192C44.7587 56.2075 44.9361 56.076 45.0613 55.7776L46.4798 55.9446C46.2711 56.6968 45.8539 57.0907 45.5828 57.2819C45.134 57.5921 44.6334 57.6758 44.1119 57.6758C43.4129 57.6758 42.7977 57.5327 42.2552 56.9119C41.8486 56.4461 41.5566 55.742 41.5566 54.8584C41.5566 54.0941 41.7965 53.3064 42.2659 52.7572C42.8289 52.1126 43.5279 51.9933 44.0494 51.9933C44.571 51.9933 45.3221 52.1005 45.8954 52.7928C46.4482 53.4616 46.5529 54.2971 46.5529 54.9539V55.133ZM45.1652 54.1063C45.155 54.0585 45.0819 53.7245 44.863 53.4855C44.6962 53.3064 44.456 53.1871 44.1537 53.1871C43.7677 53.1871 43.5382 53.3662 43.3923 53.5332C43.2774 53.6764 43.1731 53.8676 43.1312 54.1063H45.1652Z" fill="#313131"/>
<path d="M52.5609 57.4967H51.0587V56.8521C50.8295 57.2339 50.4123 57.6759 49.5885 57.6759C48.8998 57.6759 48.3992 57.4251 47.9923 56.9476C47.5126 56.3984 47.2625 55.6345 47.2625 54.8104C47.2625 53.9272 47.5438 53.1989 47.9923 52.7095C48.3992 52.2679 48.9729 51.9933 49.609 51.9933C50.1203 51.9933 50.6834 52.1842 51.0591 52.769V48.7938H52.5609V57.4967ZM49.1709 53.8317C48.952 54.0707 48.8058 54.4169 48.8058 54.8463C48.8058 55.2406 48.952 55.5864 49.1709 55.8254C49.4004 56.0761 49.6924 56.1954 49.9532 56.1954C50.2349 56.1954 50.5688 56.064 50.8086 55.8015C50.986 55.6106 51.1528 55.2883 51.1528 54.8467C51.1528 54.393 50.9963 54.0824 50.8189 53.8677C50.5791 53.581 50.2973 53.4738 49.9741 53.4738C49.6715 53.4738 49.4111 53.5692 49.1709 53.8317Z" fill="#313131"/>
<path d="M9.78575 5.92307C8.40809 7.91283 6.36997 11.4021 5.38105 16.1929C4.55399 20.1995 4.77282 23.6046 5.09467 25.8333C7.2551 27.4087 9.0172 27.7268 10.2034 27.739C12.9702 27.7673 16.1078 26.1665 19.1082 26.0939C19.7288 26.079 20.3681 26.0981 20.3681 26.0981C21.6724 26.1373 22.7594 26.2777 23.5471 26.4095C22.8542 26.214 11.8964 22.9419 9.63656 13.4638C8.92817 10.4927 9.29112 7.8204 9.78575 5.92307Z" fill="#EA9127"/>
<path d="M5.32031 27.1945C5.81685 29.548 6.92727 33.1636 9.6232 36.7355C15.2991 44.2568 23.6997 45.8838 25.9128 46.2417C25.5422 44.1313 25.2455 41.1116 25.6711 37.5325C26.0986 33.9355 27.103 31.0573 27.9626 29.0885C24.0823 27.0766 21.04 26.8655 18.9463 27.0651C15.0088 27.4406 12.1709 29.4839 8.02444 28.3581C6.82182 28.0316 5.89923 27.5445 5.32035 27.1946L5.32031 27.1945Z" fill="#EA9127"/>
<path d="M11.0791 38.4789C12.8968 38.4205 15.4579 38.11 18.2746 36.9735C23.6838 34.7913 26.7238 30.8995 27.9625 29.0885C27.5124 30.1168 27.0913 31.2381 26.7287 32.4521C25.1151 37.8534 25.3542 42.7569 25.9127 46.2417C22.3049 45.6103 17.3217 44.1042 12.922 40.2684C12.249 39.6818 11.6365 39.0813 11.0791 38.4789Z" fill="#903518"/>
<path d="M9.78627 5.92307C8.73961 7.43382 7.5554 9.45795 6.60192 11.9891C5.17685 15.772 4.84452 19.1543 4.80981 21.471C5.39024 20.8827 5.97537 20.5126 6.48975 20.2727C10.5593 18.3741 15.4419 22.1728 15.8094 22.4667C14.6858 21.6446 10.4901 18.3706 9.45531 12.5859C8.94992 9.76076 9.38483 7.37887 9.78631 5.92314L9.78627 5.92307Z" fill="#F6D365"/>
<path d="M5.32035 27.1946C6.47628 28.5046 8.97017 30.9412 12.9005 32.097C20.6169 34.366 27.12 29.7126 27.9626 29.0886C26.8949 30.6872 24.4923 33.8171 20.2378 36.0585C16.4553 38.0513 12.9647 38.4169 11.0792 38.4789C9.99545 37.2951 8.64927 35.584 7.47692 33.3085C6.26465 30.9556 5.64937 28.7971 5.32031 27.1946H5.32035Z" fill="#CC5520"/>
<path d="M24.4914 0C24.044 0.808054 23.4563 2.10531 23.2144 3.79713C23.0269 5.1076 23.1081 6.22758 23.2309 7.03107C24.0595 6.73127 24.976 6.4398 25.9751 6.1803C27.0619 5.89805 28.0829 5.69611 29.0181 5.55148C28.7174 4.77076 28.2165 3.7225 27.376 2.63808C26.3643 1.33235 25.2657 0.497225 24.4913 0H24.4914Z" fill="#EA9127"/>
<path d="M44.2851 0.698425C43.5311 1.10491 42.4656 1.78948 41.4247 2.89172C40.3666 4.0123 39.7392 5.13479 39.3774 5.91834C40.2692 6.12192 41.2381 6.38458 42.2643 6.72567C43.285 7.06494 44.2135 7.43247 45.0462 7.80113C45.2383 6.97375 45.4329 5.69474 45.2618 4.1482C45.095 2.63935 44.644 1.4578 44.2851 0.698425Z" fill="#EA9127"/>
<path d="M23.1772 8.15701C23.0514 9.48249 23.0042 11.1175 23.1917 12.9727C23.3914 14.9499 23.8028 16.6347 24.2235 17.9607C25.3483 15.3003 26.7404 13.6373 27.8615 12.5857C28.8842 11.6265 30.016 10.8622 30.4798 9.33775C30.8359 8.16685 30.6439 7.05409 30.4099 6.26944C29.453 6.36866 28.3823 6.53609 27.2288 6.81123C25.658 7.18588 24.3005 7.67267 23.1772 8.15701Z" fill="#E39334"/>
<path d="M31.3729 6.18005C31.5237 6.68619 31.7051 7.52411 31.6102 8.555C31.5741 8.94783 31.4859 9.8157 30.9933 10.7467C30.3709 11.9232 29.7114 12.0501 28.2061 13.7853C27.82 14.2305 27.5266 14.6104 27.3464 14.851C29.5373 15.95 31.7281 17.049 33.919 18.148C34.9796 17.5853 39.8447 14.8671 40.6924 9.79852C40.8151 9.06687 40.8705 8.18553 40.7541 7.17343C39.3683 6.7689 37.6524 6.38999 35.6651 6.2132C34.0549 6.06996 32.6067 6.08964 31.3728 6.18016L31.3729 6.18005Z" fill="#F6D365"/>
<path d="M45.0888 8.79883C45.1755 9.53407 45.2261 10.3298 45.2192 11.1787C45.1946 14.3005 44.4034 16.8891 43.6222 18.7329C43.6185 18.5861 43.5476 16.8824 42.0528 15.9106C40.6273 14.9835 39.1203 15.5122 38.9595 15.5718C39.5607 14.8993 40.3441 13.8619 40.9399 12.4396C41.8111 10.3604 41.8478 8.49352 41.788 7.44574C42.8884 7.89678 43.9884 8.34786 45.0888 8.7989V8.79883Z" fill="#EA9127"/>
<path d="M24.4749 18.9875C26.0069 21.7752 27.539 24.5627 29.0711 27.3503C30.0715 27.7359 31.6011 28.1933 33.5123 28.2727C35.5285 28.3563 37.1652 27.9858 38.215 27.6612C39.9269 24.9758 41.6385 22.2904 43.3504 19.6051C42.7928 19.7557 42.0616 19.9247 41.1948 20.0488C40.4639 20.1535 39.5684 20.2361 38.3931 20.2308C36.0549 20.2202 35.9329 19.877 33.754 19.8045C31.7927 19.7394 31.7829 20.0137 29.5551 19.9045C28.2283 19.8395 27.229 19.6931 26.3331 19.4977C25.5756 19.3325 24.9443 19.1438 24.4749 18.9876L24.4749 18.9875Z" fill="#F6D365"/>
<path d="M29.0419 29.0423C30.3311 30.5904 31.6203 32.1384 32.9095 33.6865C31.7143 35.3786 30.4011 37.515 29.2153 40.0971C28.1248 42.4718 27.3933 44.6758 26.8933 46.5605C26.3722 43.2981 26.1032 38.5858 27.5414 33.2902C27.9679 31.7198 28.489 30.3024 29.0418 29.0424L29.0419 29.0423Z" fill="#F6D365"/>
<path d="M37.2621 30.0421C35.6292 31.7361 33.6844 34.0725 31.9048 37.1148C29.8578 40.6139 28.7152 43.8744 28.0537 46.35C30.4832 46.7553 32.4783 46.7101 33.8475 46.5901C36.1022 46.3923 37.0248 45.9602 37.6903 45.4844C37.9734 45.2822 38.8446 44.6596 39.3357 43.6409C40.3917 41.4505 38.7367 39.4091 37.8159 35.2244C37.5529 34.0298 37.2637 32.2684 37.262 30.0421H37.2621Z" fill="#903518"/>
<path d="M32.8888 19.2235C32.3265 18.8491 31.5615 18.3597 30.6274 17.8201C30.1268 17.5309 29.7334 17.3173 29.3043 17.0847C28.6709 16.7414 27.8427 16.3031 26.8545 15.8088C26.7178 16.0824 26.4925 16.6252 26.4961 17.3411C26.4993 17.9691 26.6773 18.4544 26.7999 18.7242C27.5632 18.6958 28.3923 18.6988 29.2774 18.7512C30.6195 18.8307 31.8308 19.0081 32.8889 19.2235L32.8888 19.2235Z" fill="#532322"/>
<path d="M34.7896 19.2894C35.8642 18.6778 37.0431 18.0626 38.3257 17.4694C39.2497 17.0421 40.1459 16.664 41.0061 16.3289C41.1244 16.6115 41.3257 17.2007 41.2441 17.9512C41.1806 18.5374 40.9712 18.9778 40.8272 19.229C40.0655 19.1422 39.2303 19.0833 38.3312 19.0731C37.0175 19.0582 35.8278 19.1503 34.7896 19.2894Z" fill="#532322"/>
<path d="M30.2524 28.8103C31.119 29.032 32.2333 29.2366 33.5381 29.2812C34.8585 29.3264 35.9958 29.1949 36.8816 29.0297C35.7265 30.2614 34.5715 31.4931 33.4165 32.7248C32.3618 31.42 31.3071 30.1152 30.2524 28.8103Z" fill="#532322"/>
<path d="M34.7656 19.2949C35.3534 18.9619 36.1517 18.5288 37.1222 18.0578C37.6422 17.8053 38.0503 17.6205 38.4947 17.4194C39.1514 17.1224 40.009 16.7449 41.0301 16.323C41.1469 16.6058 41.3327 17.1633 41.2773 17.877C41.2288 18.5032 41.0165 18.9744 40.8747 19.2347C40.1155 19.1515 39.2884 19.0949 38.4018 19.0835C37.0575 19.0663 35.8365 19.1562 34.7657 19.2949L34.7656 19.2949Z" fill="#532322"/>
<path d="M24.2234 17.9606C23.6082 15.8874 23.1056 13.3324 23.0781 10.4029C23.0706 9.61472 23.0983 8.86083 23.1517 8.14464C24.2495 7.68071 25.5634 7.21546 27.0749 6.84849C28.2879 6.55393 29.4112 6.37538 30.4098 6.26944C30.2028 6.71453 29.8457 7.39835 29.2751 8.13561C27.6234 10.2695 25.9906 10.5164 24.9213 11.773C24.1269 12.7067 23.4374 14.4405 24.2235 17.9606L24.2234 17.9606Z" fill="#CC5520"/>
<path d="M39.0833 13.6897C38.1324 13.4743 36.5103 12.9698 34.916 11.6927C32.437 9.70704 31.6233 7.13353 31.3726 6.18009C32.6568 6.08589 34.1895 6.06735 35.9054 6.23574C37.7949 6.42112 39.4286 6.78637 40.7538 7.17339C40.8316 7.86132 40.8588 8.76802 40.6836 9.80644C40.378 11.6189 39.6049 12.9435 39.0833 13.6897V13.6897Z" fill="#CC5520"/>
<path d="M41.7878 7.44543C42.8878 7.89651 43.9882 8.34755 45.0886 8.7986C45.216 9.90952 45.2748 11.2574 45.1367 12.7762C44.9093 15.2833 44.2317 17.3134 43.6216 18.7327C43.8053 18.2367 45.2212 14.2312 43.0281 11.4523C42.714 11.0542 42.2627 10.6013 41.6111 10.1957C41.6676 9.89337 41.7161 9.56801 41.7507 9.22137C41.8153 8.56748 41.8175 7.97 41.7878 7.44551V7.44543Z" fill="#CC5520"/>
<path d="M39.3774 5.91834C39.7275 5.16136 40.2997 4.14174 41.2231 3.1111C42.3257 1.88058 43.483 1.13173 44.2852 0.698425C44.6253 1.41985 45.0083 2.43565 45.2015 3.69573C45.4678 5.43595 45.2563 6.88716 45.0462 7.8011C44.9202 6.56654 44.1257 5.50448 42.9923 5.06074C41.7487 4.57406 40.3067 4.91332 39.3774 5.91834Z" fill="#CC5520"/>
<path d="M23.2315 7.03107C23.1072 6.21756 23.0228 5.06083 23.229 3.70253C23.4791 2.05497 24.0535 0.791458 24.492 0C25.1829 0.443381 26.0668 1.11397 26.9254 2.09137C28.0556 3.37805 28.6772 4.66709 29.0188 5.55148C28.1595 4.40873 26.6811 3.94073 25.3806 4.38058C24.2365 4.76749 23.4021 5.79879 23.2316 7.03107H23.2315Z" fill="#CC5520"/>
<path d="M31.6741 39.5667C29.4715 42.1899 28.4963 44.8231 28.0537 46.3505C29.2289 44.2643 32.55 39.0124 37.6623 38.5524C38.0171 38.5205 38.3859 38.5113 38.7686 38.5293C38.5181 37.8263 38.2783 37.0632 38.0634 36.2422C37.9356 35.7545 37.8258 35.2812 37.7318 34.8247C36.3032 35.5254 33.8774 36.9424 31.6741 39.5667Z" fill="#CC5520"/>
<path d="M27.2834 34.3117C26.6951 36.9397 26.2954 40.1866 26.5735 43.8648C26.6449 44.809 26.7554 45.7084 26.8936 46.5604C27.1132 45.7719 27.3632 44.9529 27.6481 44.1078C28.0368 42.9556 28.4492 41.8785 28.8689 40.8789C28.3404 38.6896 27.8119 36.5006 27.2834 34.3116V34.3117Z" fill="#CC5520"/>
<path d="M29.0711 27.3503C27.539 24.5627 26.007 21.7752 24.4749 18.9875C25.2556 20.4215 26.163 21.2167 26.8081 21.6654C30.8143 24.4516 36.7823 22.2801 39.8791 21.1497C41.4405 20.5797 42.6452 19.9811 43.343 19.6123C41.6337 22.2953 39.9243 24.9782 38.215 27.6612C37.1861 27.9794 35.6023 28.3387 33.6529 28.2775C31.6673 28.2151 30.0846 27.7409 29.0711 27.3503H29.0711Z" fill="#EA9127"/>
<path d="M31.3728 6.18C31.5448 6.72836 31.7593 7.67765 31.597 8.83522C31.543 9.22015 31.4407 10.1025 30.8539 10.9912C30.3943 11.6874 30.0391 11.9114 29.2023 12.7311C28.7191 13.2045 28.0588 13.9043 27.3464 14.8509C28.1501 15.1617 29.0911 15.4433 30.1575 15.6185C33.7698 16.212 36.7815 15.2509 38.4148 14.5686C38.6378 14.2756 38.8607 13.9826 39.0837 13.6895C37.5442 12.8357 35.4941 11.4473 33.5813 9.25363C32.6454 8.18048 31.9256 7.12455 31.3728 6.17996L31.3728 6.18Z" fill="#EA9127"/>
<path d="M31.614 34.135C29.81 35.2685 27.6449 34.4539 27.2831 34.3115C27.2682 35.1194 27.2689 35.9488 27.288 36.7987C27.3426 39.2267 27.5394 41.4993 27.8235 43.5972C28.5833 41.4046 29.6514 38.9334 31.1747 36.3617C31.7441 35.4004 32.3273 34.5094 32.9094 33.6864C32.7959 33.5501 32.6824 33.4137 32.5689 33.2774C32.3284 33.5778 32.0165 33.882 31.614 34.135Z" fill="#EA9127"/>
<path d="M28.0537 46.35C28.5552 44.7536 29.6137 42.0958 31.8792 39.4572C33.9975 36.99 36.2792 35.5773 37.7318 34.8245C37.5474 33.8961 37.3971 32.859 37.3195 31.7267C37.2791 31.1387 37.2619 30.5762 37.2621 30.0421C35.8277 31.5304 34.2467 33.4157 32.7492 35.7404C30.189 39.7149 28.8187 43.5051 28.0537 46.35Z" fill="#EA9127"/>
<path d="M24.506 0C24.2602 0.422376 24.0065 0.927471 23.7839 1.51363C23.4227 2.46461 23.2567 3.33107 23.1799 4.01812C23.2168 3.81475 23.4204 2.80773 24.2924 2.2911C25.2869 1.70204 26.7579 1.98338 27.7311 3.09123C27.2568 2.43253 26.61 1.6695 25.7443 0.929476C25.3175 0.564604 24.8989 0.257737 24.506 0H24.506Z" fill="#903518"/>
<path d="M44.2852 0.698425C44.5067 1.12973 44.7329 1.65292 44.9173 2.2632C45.2203 3.26742 45.3059 4.16464 45.3151 4.84717C45.3 4.66972 45.1898 3.57063 44.3021 2.96712C43.3471 2.31789 41.875 2.50168 40.8599 3.53188C41.3414 2.94035 42.0032 2.24645 42.8855 1.5892C43.3758 1.22393 43.8511 0.932 44.2852 0.698425Z" fill="#903518"/>
<path d="M38.2149 27.6611C39.4978 25.6477 40.7804 23.6341 42.0633 21.6207C40.9273 22.8659 38.6038 25.0648 34.9704 26.3539C32.6142 27.1899 30.5152 27.3566 29.0708 27.3502C30.1483 27.7628 31.8572 28.2664 33.998 28.281C35.7602 28.293 37.2112 27.9695 38.2149 27.6611Z" fill="#CC5520"/>
</svg>
