<svg width="74" height="40" viewBox="0 0 74 40" fill="none" xmlns="http://www.w3.org/2000/svg">
<g filter="url(#filter0_d_1_337)">
<rect x="2" y="1" width="70" height="36" rx="18" fill="white"/>
<rect x="2.5" y="1.5" width="69" height="35" rx="17.5" stroke="#DEDFE5"/>
<g clip-path="url(#clip0_1_337)">
<path fill-rule="evenodd" clip-rule="evenodd" d="M21.0494 13.092C20.9289 13.0707 20.8049 13.0827 20.6907 13.1266C20.5765 13.1705 20.4764 13.2447 20.4012 13.3413C20.326 13.4378 20.2786 13.5529 20.2639 13.6744C20.2492 13.7959 20.2679 13.919 20.318 14.0307C20.6502 14.7706 20.7496 15.594 20.603 16.3917C20.4564 17.1894 20.0708 17.9237 19.4973 18.4973C18.9238 19.0708 18.1895 19.4564 17.3918 19.603C16.594 19.7495 15.7706 19.6502 15.0307 19.318C14.919 19.2678 14.7958 19.2489 14.6742 19.2635C14.5526 19.2781 14.4374 19.3255 14.3407 19.4007C14.2441 19.476 14.1699 19.5761 14.1259 19.6904C14.082 19.8047 14.07 19.9288 14.0914 20.0493C14.3523 21.5277 15.158 22.8546 16.3493 23.768C17.5407 24.6814 19.0312 25.1151 20.5267 24.9833C22.0221 24.8515 23.4138 24.1639 24.4271 23.0562C25.4404 21.9485 26.0016 20.5012 26 19C26 17.5906 25.5039 16.2262 24.5987 15.146C23.6935 14.0658 22.437 13.3386 21.0494 13.092Z" fill="#323749"/>
</g>
<path d="M36.3351 24.5H34.1085L34.1231 23.3501H36.3351C37.0968 23.3501 37.7315 23.1914 38.2394 22.874C38.7472 22.5518 39.128 22.1025 39.3819 21.5264C39.6407 20.9453 39.7701 20.2666 39.7701 19.4902V18.8384C39.7701 18.228 39.6969 17.686 39.5504 17.2124C39.4039 16.7339 39.1891 16.3311 38.9059 16.0039C38.6227 15.6719 38.276 15.4204 37.8658 15.2495C37.4605 15.0786 36.9942 14.9932 36.4669 14.9932H34.0646V13.8359H36.4669C37.1651 13.8359 37.8023 13.9531 38.3785 14.1875C38.9547 14.417 39.4503 14.7515 39.8653 15.1909C40.2853 15.6255 40.6075 16.1528 40.8321 16.7729C41.0567 17.3882 41.169 18.0815 41.169 18.853V19.4902C41.169 20.2617 41.0567 20.9575 40.8321 21.5776C40.6075 22.1929 40.2828 22.7178 39.858 23.1523C39.4381 23.5869 38.9303 23.9214 38.3346 24.1558C37.7437 24.3853 37.0772 24.5 36.3351 24.5ZM34.8629 13.8359V24.5H33.4493V13.8359H34.8629ZM47.4608 23.145V19.0654C47.4608 18.7529 47.3974 18.4819 47.2704 18.2524C47.1483 18.0181 46.9628 17.8374 46.7138 17.7104C46.4647 17.5835 46.1571 17.52 45.7909 17.52C45.4491 17.52 45.1488 17.5786 44.89 17.6958C44.6361 17.813 44.4359 17.9668 44.2895 18.1572C44.1479 18.3477 44.0771 18.5527 44.0771 18.7725H42.7221C42.7221 18.4893 42.7953 18.2085 42.9418 17.9302C43.0883 17.6519 43.2982 17.4004 43.5717 17.1758C43.85 16.9463 44.182 16.7656 44.5678 16.6338C44.9584 16.4971 45.393 16.4287 45.8715 16.4287C46.4477 16.4287 46.9555 16.5264 47.3949 16.7217C47.8393 16.917 48.1859 17.2124 48.435 17.6079C48.6889 17.9985 48.8158 18.4893 48.8158 19.0801V22.7715C48.8158 23.0352 48.8378 23.3159 48.8817 23.6138C48.9306 23.9116 49.0014 24.168 49.0941 24.3828V24.5H47.6806C47.6122 24.3438 47.5585 24.1362 47.5194 23.8774C47.4804 23.6138 47.4608 23.3696 47.4608 23.145ZM47.6952 19.6953L47.7099 20.6475H46.3402C45.9545 20.6475 45.6103 20.6792 45.3075 20.7427C45.0048 20.8013 44.7509 20.8916 44.5458 21.0137C44.3407 21.1357 44.1845 21.2896 44.0771 21.4751C43.9696 21.6558 43.9159 21.8682 43.9159 22.1123C43.9159 22.3613 43.9721 22.5884 44.0844 22.7935C44.1967 22.9985 44.3651 23.1621 44.5897 23.2842C44.8192 23.4014 45.1 23.46 45.432 23.46C45.8471 23.46 46.2133 23.3721 46.5307 23.1963C46.848 23.0205 47.0995 22.8057 47.2851 22.5518C47.4755 22.2979 47.578 22.0513 47.5927 21.812L48.1713 22.4639C48.1371 22.6689 48.0443 22.896 47.893 23.145C47.7416 23.394 47.539 23.6333 47.2851 23.8628C47.036 24.0874 46.7382 24.2754 46.3915 24.4268C46.0497 24.5732 45.664 24.6465 45.2343 24.6465C44.6972 24.6465 44.226 24.5415 43.8207 24.3315C43.4203 24.1216 43.1078 23.8408 42.8832 23.4893C42.6635 23.1328 42.5536 22.7349 42.5536 22.2954C42.5536 21.8706 42.6366 21.4971 42.8026 21.1748C42.9687 20.8477 43.2079 20.5767 43.5204 20.3618C43.8329 20.1421 44.2089 19.9761 44.6483 19.8638C45.0878 19.7515 45.5785 19.6953 46.1205 19.6953H47.6952ZM52.0021 17.8203V24.5H50.6472V16.5752H51.9655L52.0021 17.8203ZM54.4777 16.5312L54.4704 17.791C54.3581 17.7666 54.2507 17.752 54.1481 17.7471C54.0505 17.7373 53.9382 17.7324 53.8112 17.7324C53.4987 17.7324 53.2229 17.7812 52.9836 17.8789C52.7443 17.9766 52.5417 18.1133 52.3757 18.2891C52.2097 18.4648 52.0778 18.6748 51.9802 18.9189C51.8874 19.1582 51.8264 19.4219 51.7971 19.71L51.4162 19.9297C51.4162 19.4512 51.4626 19.002 51.5554 18.582C51.653 18.1621 51.802 17.791 52.0021 17.4688C52.2023 17.1416 52.4562 16.8877 52.7639 16.707C53.0764 16.5215 53.4475 16.4287 53.8771 16.4287C53.9748 16.4287 54.0871 16.4409 54.2141 16.4653C54.341 16.4849 54.4289 16.5068 54.4777 16.5312ZM56.7925 13.25V24.5H55.4302V13.25H56.7925ZM61.6338 16.5752L58.1768 20.2739L56.2432 22.2808L56.1333 20.8379L57.5176 19.1826L59.9785 16.5752H61.6338ZM60.396 24.5L57.5688 20.7207L58.272 19.5122L61.9927 24.5H60.396Z" fill="#323749"/>
</g>
<defs>
<filter id="filter0_d_1_337" x="0" y="0" width="74" height="40" filterUnits="userSpaceOnUse" color-interpolation-filters="sRGB">
<feFlood flood-opacity="0" result="BackgroundImageFix"/>
<feColorMatrix in="SourceAlpha" type="matrix" values="0 0 0 0 0 0 0 0 0 0 0 0 0 0 0 0 0 0 127 0" result="hardAlpha"/>
<feOffset dy="1"/>
<feGaussianBlur stdDeviation="1"/>
<feColorMatrix type="matrix" values="0 0 0 0 0.0627451 0 0 0 0 0.0941176 0 0 0 0 0.156863 0 0 0 0.05 0"/>
<feBlend mode="normal" in2="BackgroundImageFix" result="effect1_dropShadow_1_337"/>
<feBlend mode="normal" in="SourceGraphic" in2="effect1_dropShadow_1_337" result="shape"/>
</filter>
<clipPath id="clip0_1_337">
<rect width="16" height="16" fill="white" transform="translate(12 11)"/>
</clipPath>
</defs>
</svg>
