<svg width="77" height="40" viewBox="0 0 77 40" fill="none" xmlns="http://www.w3.org/2000/svg">
<g filter="url(#filter0_d_2005_252)">
<rect x="2" y="1" width="73" height="36" rx="18" fill="#454545"/>
<rect x="2.5" y="1.5" width="72" height="35" rx="17.5" stroke="#646464"/>
<g clip-path="url(#clip0_2005_252)">
<path d="M19.9999 23.6667C20.1767 23.6667 20.3463 23.7369 20.4713 23.8619C20.5963 23.987 20.6666 24.1565 20.6666 24.3333V25C20.6666 25.1768 20.5963 25.3464 20.4713 25.4714C20.3463 25.5964 20.1767 25.6667 19.9999 25.6667C19.8231 25.6667 19.6535 25.5964 19.5285 25.4714C19.4035 25.3464 19.3332 25.1768 19.3332 25V24.3333C19.3332 24.1565 19.4035 23.987 19.5285 23.8619C19.6535 23.7369 19.8231 23.6667 19.9999 23.6667ZM24.2426 22.3L24.7139 22.7713C24.8354 22.8971 24.9025 23.0655 24.901 23.2403C24.8995 23.4151 24.8294 23.5823 24.7058 23.7059C24.5822 23.8295 24.415 23.8996 24.2402 23.9011C24.0654 23.9026 23.897 23.8354 23.7712 23.714L23.2999 23.2427C23.1785 23.1169 23.1113 22.9485 23.1128 22.7737C23.1143 22.5989 23.1844 22.4317 23.308 22.3081C23.4316 22.1845 23.5988 22.1144 23.7736 22.1129C23.9484 22.1114 24.1168 22.1786 24.2426 22.3ZM15.7572 22.3C15.8772 22.1804 16.0382 22.111 16.2075 22.1059C16.3768 22.1007 16.5417 22.1602 16.6688 22.2722C16.7958 22.3842 16.8754 22.5404 16.8915 22.709C16.9076 22.8776 16.8589 23.046 16.7552 23.18L16.6999 23.2427L16.2286 23.714C16.1086 23.8336 15.9476 23.903 15.7783 23.9082C15.609 23.9133 15.4441 23.8539 15.3171 23.7418C15.19 23.6298 15.1104 23.4736 15.0943 23.305C15.0783 23.1364 15.127 22.968 15.2306 22.834L15.2859 22.7713L15.7572 22.3ZM19.9999 15C21.0608 15 22.0782 15.4214 22.8283 16.1716C23.5785 16.9217 23.9999 17.9391 23.9999 19C23.9999 20.0609 23.5785 21.0783 22.8283 21.8284C22.0782 22.5786 21.0608 23 19.9999 23C18.939 23 17.9216 22.5786 17.1715 21.8284C16.4213 21.0783 15.9999 20.0609 15.9999 19C15.9999 17.9391 16.4213 16.9217 17.1715 16.1716C17.9216 15.4214 18.939 15 19.9999 15ZM14.6666 18.3333C14.8365 18.3335 14.9999 18.3986 15.1235 18.5152C15.247 18.6319 15.3214 18.7913 15.3314 18.9609C15.3413 19.1306 15.2861 19.2976 15.1771 19.4279C15.068 19.5582 14.9133 19.6419 14.7446 19.662L14.6666 19.6667H13.9999C13.83 19.6665 13.6666 19.6014 13.543 19.4848C13.4194 19.3681 13.3451 19.2087 13.3351 19.0391C13.3252 18.8695 13.3804 18.7024 13.4894 18.5721C13.5985 18.4418 13.7532 18.3581 13.9219 18.338L13.9999 18.3333H14.6666ZM25.9999 18.3333C26.1767 18.3333 26.3463 18.4036 26.4713 18.5286C26.5963 18.6536 26.6666 18.8232 26.6666 19C26.6666 19.1768 26.5963 19.3464 26.4713 19.4714C26.3463 19.5964 26.1767 19.6667 25.9999 19.6667H25.3332C25.1564 19.6667 24.9869 19.5964 24.8618 19.4714C24.7368 19.3464 24.6666 19.1768 24.6666 19C24.6666 18.8232 24.7368 18.6536 24.8618 18.5286C24.9869 18.4036 25.1564 18.3333 25.3332 18.3333H25.9999ZM15.2859 14.286C15.4007 14.1712 15.5534 14.1023 15.7155 14.0921C15.8775 14.0819 16.0376 14.1312 16.1659 14.2307L16.2286 14.286L16.6999 14.7573C16.8195 14.8773 16.8889 15.0383 16.8941 15.2076C16.8992 15.3769 16.8398 15.5418 16.7277 15.6689C16.6157 15.7959 16.4595 15.8755 16.2909 15.8916C16.1223 15.9077 15.9539 15.859 15.8199 15.7553L15.7572 15.7L15.2859 15.2287C15.1609 15.1037 15.0907 14.9341 15.0907 14.7573C15.0907 14.5806 15.1609 14.411 15.2859 14.286ZM24.7139 14.286C24.8389 14.411 24.9091 14.5806 24.9091 14.7573C24.9091 14.9341 24.8389 15.1037 24.7139 15.2287L24.2426 15.7C24.1811 15.7637 24.1075 15.8145 24.0262 15.8494C23.9448 15.8844 23.8574 15.9027 23.7688 15.9035C23.6803 15.9043 23.5925 15.8874 23.5106 15.8539C23.4287 15.8204 23.3542 15.7709 23.2916 15.7083C23.2291 15.6457 23.1796 15.5712 23.146 15.4893C23.1125 15.4074 23.0956 15.3196 23.0964 15.2311C23.0972 15.1426 23.1156 15.0551 23.1505 14.9737C23.1855 14.8924 23.2362 14.8188 23.2999 14.7573L23.7712 14.286C23.8963 14.161 24.0658 14.0908 24.2426 14.0908C24.4194 14.0908 24.5889 14.161 24.7139 14.286ZM19.9999 12.3333C20.1767 12.3333 20.3463 12.4036 20.4713 12.5286C20.5963 12.6536 20.6666 12.8232 20.6666 13V13.6667C20.6666 13.8435 20.5963 14.0131 20.4713 14.1381C20.3463 14.2631 20.1767 14.3333 19.9999 14.3333C19.8231 14.3333 19.6535 14.2631 19.5285 14.1381C19.4035 14.0131 19.3332 13.8435 19.3332 13.6667V13C19.3332 12.8232 19.4035 12.6536 19.5285 12.5286C19.6535 12.4036 19.8231 12.3333 19.9999 12.3333Z" fill="white"/>
</g>
<path d="M40.5799 23.3501V24.5H35.2479V23.3501H40.5799ZM35.5262 13.8359V24.5H34.1126V13.8359H35.5262ZM43.1656 16.5752V24.5H41.8033V16.5752H43.1656ZM41.7008 14.4731C41.7008 14.2534 41.7667 14.0679 41.8985 13.9165C42.0353 13.7651 42.2354 13.6895 42.4991 13.6895C42.7579 13.6895 42.9557 13.7651 43.0924 13.9165C43.234 14.0679 43.3048 14.2534 43.3048 14.4731C43.3048 14.6831 43.234 14.8638 43.0924 15.0151C42.9557 15.1616 42.7579 15.2349 42.4991 15.2349C42.2354 15.2349 42.0353 15.1616 41.8985 15.0151C41.7667 14.8638 41.7008 14.6831 41.7008 14.4731ZM50.1752 16.5752H51.4057V24.3315C51.4057 25.0298 51.2641 25.6255 50.9809 26.1187C50.6977 26.6118 50.3021 26.9854 49.7943 27.2393C49.2914 27.498 48.7104 27.6274 48.0512 27.6274C47.7777 27.6274 47.4555 27.5835 47.0844 27.4956C46.7182 27.4126 46.3568 27.2686 46.0004 27.0635C45.6488 26.8633 45.3534 26.5923 45.1142 26.2505L45.8246 25.4448C46.1566 25.8452 46.5033 26.1235 46.8646 26.2798C47.2309 26.436 47.5922 26.5142 47.9486 26.5142C48.3783 26.5142 48.7494 26.4336 49.0619 26.2725C49.3744 26.1113 49.6161 25.8721 49.787 25.5547C49.9628 25.2422 50.0507 24.8564 50.0507 24.3975V18.3184L50.1752 16.5752ZM44.7187 20.6255V20.4717C44.7187 19.8662 44.7895 19.3169 44.9311 18.8237C45.0775 18.3257 45.2851 17.8984 45.5536 17.542C45.8271 17.1855 46.1566 16.9121 46.5424 16.7217C46.9281 16.5264 47.3627 16.4287 47.8461 16.4287C48.3441 16.4287 48.7787 16.5166 49.1498 16.6924C49.5258 16.8633 49.8432 17.1147 50.102 17.4468C50.3656 17.7739 50.5731 18.1694 50.7245 18.6333C50.8759 19.0972 50.9809 19.6221 51.0395 20.208V20.8818C50.9857 21.4629 50.8808 21.9854 50.7245 22.4492C50.5731 22.9131 50.3656 23.3086 50.102 23.6357C49.8432 23.9629 49.5258 24.2144 49.1498 24.3901C48.7738 24.561 48.3344 24.6465 47.8314 24.6465C47.3578 24.6465 46.9281 24.5464 46.5424 24.3462C46.1615 24.146 45.8344 23.8652 45.5609 23.5039C45.2875 23.1426 45.0775 22.7178 44.9311 22.2295C44.7895 21.7363 44.7187 21.2017 44.7187 20.6255ZM46.0736 20.4717V20.6255C46.0736 21.021 46.1127 21.3921 46.1908 21.7388C46.2738 22.0854 46.3983 22.3906 46.5644 22.6543C46.7353 22.918 46.9525 23.1255 47.2162 23.2769C47.4799 23.4233 47.7948 23.4966 48.161 23.4966C48.6103 23.4966 48.9813 23.4014 49.2743 23.2109C49.5673 23.0205 49.7992 22.769 49.9701 22.4565C50.1459 22.144 50.2826 21.8047 50.3803 21.4385V19.6733C50.3266 19.4048 50.2436 19.146 50.1313 18.897C50.0238 18.6431 49.8822 18.4185 49.7064 18.2231C49.5355 18.0229 49.3231 17.8643 49.0692 17.7471C48.8153 17.6299 48.5175 17.5713 48.1757 17.5713C47.8046 17.5713 47.4848 17.6494 47.2162 17.8057C46.9525 17.957 46.7353 18.167 46.5644 18.4355C46.3983 18.6992 46.2738 19.0068 46.1908 19.3584C46.1127 19.7051 46.0736 20.0762 46.0736 20.4717ZM54.5188 13.25V24.5H53.1638V13.25H54.5188ZM54.1965 20.2373L53.6325 20.2153C53.6374 19.6733 53.718 19.1729 53.8742 18.7139C54.0305 18.25 54.2502 17.8472 54.5334 17.5054C54.8166 17.1636 55.1535 16.8999 55.5441 16.7144C55.9396 16.5239 56.3767 16.4287 56.8552 16.4287C57.2458 16.4287 57.5974 16.4824 57.9099 16.5898C58.2224 16.6924 58.4885 16.8584 58.7082 17.0879C58.9328 17.3174 59.1037 17.6152 59.2209 17.9814C59.3381 18.3428 59.3967 18.7847 59.3967 19.3071V24.5H58.0344V19.2925C58.0344 18.8774 57.9733 18.5454 57.8513 18.2964C57.7292 18.0425 57.551 17.8594 57.3166 17.7471C57.0822 17.6299 56.7941 17.5713 56.4523 17.5713C56.1154 17.5713 55.8078 17.6421 55.5295 17.7837C55.2561 17.9253 55.0192 18.1206 54.819 18.3696C54.6237 18.6187 54.4699 18.9043 54.3576 19.2266C54.2502 19.5439 54.1965 19.8809 54.1965 20.2373ZM64.4434 16.5752V17.6152H60.1587V16.5752H64.4434ZM61.6089 14.6489H62.9639V22.5371C62.9639 22.8057 63.0054 23.0083 63.0884 23.145C63.1714 23.2817 63.2788 23.3721 63.4106 23.416C63.5425 23.46 63.6841 23.4819 63.8354 23.4819C63.9478 23.4819 64.0649 23.4722 64.187 23.4526C64.314 23.4282 64.4092 23.4087 64.4727 23.394L64.48 24.5C64.3726 24.5342 64.231 24.5659 64.0552 24.5952C63.8843 24.6294 63.6768 24.6465 63.4326 24.6465C63.1006 24.6465 62.7954 24.5806 62.5171 24.4487C62.2388 24.3169 62.0166 24.0972 61.8506 23.7896C61.6895 23.4771 61.6089 23.0571 61.6089 22.5298V14.6489Z" fill="white"/>
</g>
<defs>
<filter id="filter0_d_2005_252" x="0" y="0" width="77" height="40" filterUnits="userSpaceOnUse" color-interpolation-filters="sRGB">
<feFlood flood-opacity="0" result="BackgroundImageFix"/>
<feColorMatrix in="SourceAlpha" type="matrix" values="0 0 0 0 0 0 0 0 0 0 0 0 0 0 0 0 0 0 127 0" result="hardAlpha"/>
<feOffset dy="1"/>
<feGaussianBlur stdDeviation="1"/>
<feColorMatrix type="matrix" values="0 0 0 0 0.0627451 0 0 0 0 0.0941176 0 0 0 0 0.156863 0 0 0 0.05 0"/>
<feBlend mode="normal" in2="BackgroundImageFix" result="effect1_dropShadow_2005_252"/>
<feBlend mode="normal" in="SourceGraphic" in2="effect1_dropShadow_2005_252" result="shape"/>
</filter>
<clipPath id="clip0_2005_252">
<rect width="16" height="16" fill="white" transform="translate(12 11)"/>
</clipPath>
</defs>
</svg>
